HIERARCHY
ROOT Hips
{
	OFFSET 0.00000 0.00000 0.00000
	CHANNELS 6 Xposition Yposition Zposition Yrotation Zrotation Xrotation 
	JOINT Lumbar
	{
		OFFSET 0 0 0
		CHANNELS 3 Zrotation Xrotation Yrotation
		JOINT Neck
		{
			OFFSET 0.00 0.2701 0.00
			CHANNELS 3 Zrotation Xrotation Yrotation
			End Site
			{
				OFFSET 0.00 0.1379 0.00
			}
		}
		JOINT RightShoulder
		{
			OFFSET 0.0119 0.2289 0.1181
			CHANNELS 3 Zrotation Xrotation Yrotation
			JOINT RightElbow
			{
				OFFSET 0.00 -0.1475 0.00
				CHANNELS 2 Zrotation Yrotation
				JOINT RightWrist
				{
					OFFSET 0.00 -0.1605 0.00
					CHANNELS 2 Zrotation Xrotation
					End Site
					{
						OFFSET 0.0040 -0.1068 0.0006
					}
				}
			}
		}
		JOINT LeftShoulder
		{
			OFFSET 0.0119 0.2289 -0.1181
			CHANNELS 3 Zrotation Xrotation Yrotation
			JOINT LeftElbow
			{
				OFFSET 0.00 -0.1475 0.00
				CHANNELS 2 Zrotation Yrotation
				JOINT LeftWrist
				{
					OFFSET 0.00 -0.1605 0.00
					CHANNELS 2 Zrotation Xrotation
					End Site
					{
						OFFSET 0.0040 -0.1068 -0.0006
					}
				}
			}
		}
	}
	JOINT RightHip
	{
		OFFSET 0.0316 -0.0424 0.0458
		CHANNELS 3 Zrotation Xrotation Yrotation
		JOINT RightKnee
		{
			OFFSET 0.00 -0.2438 0.00
			CHANNELS 1 Zrotation
			JOINT RightAnkle
			{
				OFFSET 0.00 -0.2449 0.00
				CHANNELS 3 Zrotation Xrotation Yrotation
				End Site
				{
					OFFSET 0.1237 -0.0542 0.0051
				}
			}
		}
	}
	JOINT LeftHip
	{
		OFFSET 0.0316 -0.0424 -0.0458
		CHANNELS 3 Zrotation Xrotation Yrotation
		JOINT LeftKnee
		{
			OFFSET 0.00 -0.2438 0.00
			CHANNELS 1 Zrotation
			JOINT LeftAnkle
			{
				OFFSET 0.00 -0.2449 0.00
				CHANNELS 3 Zrotation Xrotation Yrotation
				End Site
				{
					OFFSET 0.1237 -0.0542 -0.0051
				}
			}
		}
	}
}
MOTION
Frames: 14
Frame Time: 0.02
-1.13468 -0.04265 0.21821 235.5645 -36.64366 -4.05625 28.21162 5.49715 4.40183 -9.55715 23.15438 -0.83076 14.64416 -19.27283 -23.15186 34.97736 84.50006 -0.91493 -4.01632 11.33972 23.7746 -55.85976 99.23279 -92.05189 5.05837 -6.82311 67.2446 -10.52109 3.25946 -54.84415 -6.0118 -3.55819 -2.47569 42.34101 21.41165 -5.94095 -39.1522 -5.78653 2.21554 1.73255
-1.12641 -0.04117 0.21764 234.97602 -36.51761 -4.23035 28.08662 5.20846 4.50361 -9.44395 22.62302 -0.83076 15.07245 -18.56335 -22.82353 34.47295 84.46675 -0.54976 -3.74119 10.75528 23.11781 -55.26145 98.8701 -92.61654 5.94467 -5.84241 66.73647 -9.99581 2.4692 -54.83967 -6.08295 -3.58443 -2.49346 43.21215 20.18482 -6.936 -40.4113 -5.73902 2.44388 1.85141
-1.11896 -0.03864 0.21657 234.35889 -36.49529 -4.3758 28.0214 4.95341 4.57732 -9.27052 21.98633 -0.83076 15.62449 -17.8008 -22.44042 33.87693 84.42631 -0.12019 -3.45393 9.78209 22.22424 -54.13497 98.36379 -93.23895 7.15859 -4.184 65.9204 -9.19446 1.20097 -54.63831 -6.17557 -3.62358 -2.51911 43.4023 18.86089 -8.16541 -40.18551 -5.78149 2.66817 1.97359
-1.11118 -0.03657 0.21573 233.76382 -36.43559 -4.53218 27.93752 4.68919 4.66144 -9.11274 21.40443 -0.83076 16.11624 -17.07753 -22.07639 33.33033 84.39038 0.27423 -3.17624 9.02019 21.45763 -53.29311 97.92483 -93.83684 8.20032 -2.89195 65.2192 -8.50887 0.12039 -54.51163 -6.25348 -3.65398 -2.53933 43.91852 17.61517 -9.2019 -40.62765 -5.78864 2.8665 2.07991
-1.10321 -0.03458 0.21489 233.12839 -36.3325 -4.69713 27.81396 4.39721 4.75365 -9.00381 20.79012 -0.83076 16.62692 -16.2867 -21.73165 32.74815 84.34957 0.69641 -2.88112 8.12556 20.61907 -52.2802 97.47095 -94.4377 9.33764 -1.37148 64.61879 -7.86021 -0.84321 -54.4442 -6.35161 -3.69575 -2.56687 44.38391 16.22387 -10.54197 -41.13489 -5.79046 3.11939 2.21527
-1.09582 -0.03218 0.21392 232.57136 -36.34514 -4.83605 27.78889 4.17153 4.82451 -8.77896 20.21968 -0.83076 17.12803 -15.62688 -21.33738 32.2194 84.31689 1.0729 -2.61957 7.40797 19.8718 -51.49029 97.01867 -95.0392 10.35324 -0.15761 63.73714 -7.0711 -2.15451 -54.20518 -6.41338 -3.71772 -2.58152 44.78689 15.11089 -11.33126 -41.14378 -5.81796 3.28123 2.30278
-1.08978 -0.02874 0.21271 232.23354 -36.65305 -4.92835 28.01813 4.12424 4.82557 -8.25064 19.79501 -0.83076 17.55835 -15.32339 -20.7986 31.86006 84.31044 1.33292 -2.45388 7.29837 19.41722 -51.46041 96.57716 -95.66474 10.97071 0.02768 62.15567 -5.95663 -4.38886 -53.57196 -6.36439 -3.6753 -2.5548 45.17386 14.82124 -10.51336 -40.09451 -5.89201 3.20005 2.26078
-1.08428 -0.02495 0.21138 231.97623 -37.07359 -4.99238 28.34499 4.14251 4.80977 -7.60789 19.41928 -0.83076 17.97727 -15.15744 -20.21575 31.55814 84.31198 1.54006 -2.32272 7.37442 19.06432 -51.66799 96.14765 -96.28126 11.45152 -0.11367 60.30235 -4.71256 -6.94146 -52.76709 -6.27897 -3.61362 -2.5155 45.52068 14.80995 -9.14707 -38.5988 -5.98658 3.03518 2.17448
-1.07855 -0.02139 0.2101 231.68571 -37.4427 -5.05756 28.63026 4.12831 4.81286 -7.01589 19.02166 -0.83076 18.4098 -14.94067 -19.66811 31.23068 84.30855 1.75446 -2.17526 7.34792 18.67458 -51.75489 95.73261 -96.87689 11.98373 -0.09247 58.57319 -3.53065 -9.2962 -52.0221 -6.21371 -3.56524 -2.48462 45.88959 14.65139 -8.05889 -37.33009 -6.07073 2.91269 2.11069
-1.07279 -0.01748 0.2088 231.38174 -37.81801 -5.17076 28.90787 4.1251 4.76611 -6.42544 18.61671 -0.83076 18.80982 -14.67202 -19.05659 30.89766 84.31068 2.04131 -2.02864 7.38415 18.23718 -51.87803 95.23021 -97.5797 12.57283 -0.10727 56.83023 -2.32208 -11.89325 -51.34991 -6.13434 -3.49863 -2.44292 46.21838 14.57674 -6.85485 -35.904 -6.16315 2.77003 2.03612
-1.06721 -0.01424 0.20754 231.12296 -38.20381 -5.178 29.2213 4.11594 4.82133 -5.80742 18.24268 -0.83076 19.27483 -14.54562 -18.56562 30.59101 84.30305 2.16463 -1.89028 7.33964 17.92631 -51.98828 94.91218 -98.05694 13.00629 -0.13368 55.05593 -1.14588 -14.05384 -50.48383 -6.07498 -3.4646 -2.42027 46.63062 14.39508 -5.7603 -34.72455 -6.24176 2.65044 1.9739
-1.062 -0.01291 0.20641 230.98858 -38.60712 -4.8966 29.63079 4.05925 5.14667 -5.1247 17.92143 -0.83076 19.90838 -14.77084 -18.44197 30.34341 84.26789 1.84181 -1.7519 7.02135 17.94017 -52.0117 95.12137 -97.90774 13.04523 -0.11302 53.26152 -0.05925 -14.9376 -49.16413 -6.08332 -3.53074 -2.45651 47.27976 13.84842 -5.09192 -34.29315 -6.27788 2.61184 1.95495
-1.05695 -0.01228 0.20533 230.89286 -39.01305 -4.5105 30.06822 3.9972 5.57784 -4.42199 17.63488 -0.83076 20.61016 -15.13547 -18.43667 30.12032 84.22245 1.35706 -1.62324 6.61841 18.07892 -52.01499 95.51262 -97.53265 12.92999 -0.09614 51.44804 0.98218 -15.36722 -47.65148 -6.11225 -3.62918 -2.51167 48.01779 13.18605 -4.55288 -34.14109 -6.29874 2.6 1.95027
-1.05181 -0.01137 0.20422 230.76767 -39.4074 -4.17407 30.47942 3.94702 5.97144 -3.73912 17.34541 -0.83076 21.28843 -15.44231 -18.36239 29.88692 84.1808 0.95135 -1.49976 6.25956 18.16156 -52.02597 95.80726 -97.2644 12.88283 -0.08022 49.643 2.02328 -15.99868 -46.19874 -6.12938 -3.70925 -2.55606 48.72132 12.57704 -3.96129 -33.89565 -6.32566 2.57841 1.94035
